%TF.GenerationSoftware,KiCad,Pcbnew,9.0.1*%
%TF.CreationDate,2026-02-25T19:20:31+04:00*%
%TF.ProjectId,ZAP-010A,5a41502d-3031-4304-912e-6b696361645f,rev?*%
%TF.SameCoordinates,Original*%
%TF.FileFunction,Profile,NP*%
%FSLAX46Y46*%
G04 Gerber Fmt 4.6, Leading zero omitted, Abs format (unit mm)*
G04 Created by KiCad (PCBNEW 9.0.1) date 2026-02-25 19:20:31*
%MOMM*%
%LPD*%
G01*
G04 APERTURE LIST*
%TA.AperFunction,Profile*%
%ADD10C,0.050000*%
%TD*%
G04 APERTURE END LIST*
D10*
X172009010Y-100740990D02*
G75*
G02*
X169759010Y-102991010I-2250010J-10D01*
G01*
X114100000Y-51200000D02*
X114150000Y-51200000D01*
X139500000Y-65000000D02*
X139500000Y-59000000D01*
X141000000Y-59000000D02*
X141000000Y-66500000D01*
X67009010Y-47232000D02*
X67009010Y-100741000D01*
X114150000Y-44950000D02*
X169759010Y-44990990D01*
X132500000Y-66500000D02*
X132500000Y-59000000D01*
X69259010Y-44982011D02*
X95450000Y-44981980D01*
X141000000Y-66500000D02*
X132500000Y-66500000D01*
X114150000Y-51200000D02*
X114150000Y-44950000D01*
X95450000Y-51200000D02*
X114100000Y-51200000D01*
X69259010Y-102990990D02*
X169749514Y-102990990D01*
X139500000Y-59000000D02*
X141000000Y-59000000D01*
X70759037Y-47231990D02*
G75*
G02*
X67758983Y-47231990I-1500027J0D01*
G01*
X67758983Y-47231990D02*
G75*
G02*
X70759037Y-47231990I1500027J0D01*
G01*
X132500000Y-59000000D02*
X134000000Y-59000000D01*
X171259037Y-100740990D02*
G75*
G02*
X168258983Y-100740990I-1500027J0D01*
G01*
X168258983Y-100740990D02*
G75*
G02*
X171259037Y-100740990I1500027J0D01*
G01*
X67009010Y-47231980D02*
G75*
G02*
X69259010Y-44982010I2249990J-20D01*
G01*
X95450000Y-44981980D02*
X95450000Y-51200000D01*
X172009010Y-100741000D02*
X172009010Y-47241000D01*
X169759010Y-44990990D02*
G75*
G02*
X172009010Y-47240990I-10J-2250010D01*
G01*
X134000000Y-59000000D02*
X134000000Y-65000000D01*
X134000000Y-65000000D02*
X139500000Y-65000000D01*
X70759010Y-100740963D02*
G75*
G02*
X67758956Y-100740963I-1500027J0D01*
G01*
X67758956Y-100740963D02*
G75*
G02*
X70759010Y-100740963I1500027J0D01*
G01*
X69259010Y-102990990D02*
G75*
G02*
X67009010Y-100740990I-10J2249990D01*
G01*
M02*
