M48
; DRILL file {KiCad 9.0.1} date 2026-02-25T19:20:26+0400
; FORMAT={-:-/ absolute / metric / decimal}
; #@! TF.CreationDate,2026-02-25T19:20:26+04:00
; #@! TF.GenerationSoftware,Kicad,Pcbnew,9.0.1
; #@! TF.FileFunction,Plated,1,2,PTH
FMAT,2
METRIC
; #@! TA.AperFunction,Plated,PTH,ComponentDrill
T1C0.200
; #@! TA.AperFunction,Plated,PTH,ViaDrill
T2C0.300
; #@! TA.AperFunction,Plated,PTH,ComponentDrill
T3C0.600
; #@! TA.AperFunction,Plated,PTH,ComponentDrill
T4C0.800
; #@! TA.AperFunction,Plated,PTH,ComponentDrill
T5C0.900
; #@! TA.AperFunction,Plated,PTH,ComponentDrill
T6C1.000
; #@! TA.AperFunction,Plated,PTH,ComponentDrill
T7C1.100
; #@! TA.AperFunction,Plated,PTH,ComponentDrill
T8C1.300
; #@! TA.AperFunction,Plated,PTH,ComponentDrill
T9C1.520
%
G90
G05
T1
X101.9Y-59.76
X101.9Y-61.16
X102.6Y-59.06
X102.6Y-60.46
X102.6Y-61.86
X103.3Y-59.76
X103.3Y-61.16
X104.0Y-59.06
X104.0Y-60.46
X104.0Y-61.86
X104.7Y-59.76
X104.7Y-61.16
T2
X71.04Y-75.2
X73.3Y-86.3
X77.5Y-76.8
X78.4Y-83.1
X80.1Y-76.7
X80.8Y-59.1
X81.2Y-61.7
X81.2Y-64.8
X81.3Y-63.25
X81.9Y-86.4
X82.65Y-79.405
X83.95Y-88.45
X84.2Y-59.15
X87.7Y-81.9
X88.8Y-57.6
X89.8Y-56.2
X91.2Y-83.2
X95.9Y-77.6
X96.5Y-84.2
X97.05Y-75.3
X97.7Y-55.25
X97.95Y-59.55
X98.05Y-67.35
X98.7Y-60.15
X100.35Y-67.1
X101.9Y-87.0
X105.8Y-78.8
X105.8Y-84.4
X111.7Y-52.7
X115.1Y-52.7
X116.2Y-85.9
X120.25Y-93.9
X120.5Y-69.1
X121.8Y-66.4
X121.8Y-76.1
X121.9Y-56.7
X123.05Y-63.15
X126.8Y-92.0
X127.8Y-76.0
X134.5Y-87.3
X136.8Y-95.5
T4
X150.0Y-59.89
X150.0Y-67.51
X160.7Y-66.0
X163.4Y-58.5
T5
X69.83Y-80.425
X69.83Y-88.438
X69.83Y-96.45
X72.37Y-80.425
X72.37Y-88.438
X72.37Y-96.45
T6
X76.12Y-53.9
X78.66Y-53.9
X81.2Y-53.9
X83.74Y-53.9
X134.162Y-74.462
X134.162Y-92.462
X155.15Y-56.75
X155.15Y-66.75
X167.762Y-80.462
X167.762Y-86.462
X169.29Y-56.49
X169.3Y-51.41
T7
X76.35Y-93.15
X76.35Y-99.65
X80.85Y-93.15
X80.85Y-99.65
X85.337Y-93.15
X85.337Y-99.65
X89.837Y-93.15
X89.837Y-99.65
X94.325Y-93.15
X94.325Y-99.65
X98.825Y-93.15
X98.825Y-99.65
X103.312Y-93.15
X103.312Y-99.65
X107.812Y-93.15
X107.812Y-99.65
X112.3Y-93.15
X112.3Y-99.65
X116.8Y-93.15
X116.8Y-99.65
T8
X130.8Y-48.982
X130.8Y-61.182
X136.8Y-63.182
X142.8Y-48.982
X142.8Y-61.182
T9
X148.36Y-49.0
X153.44Y-49.0
X158.52Y-49.0
X163.6Y-49.0
T3
G00X70.5Y-58.68
M15
G01X69.9Y-58.68
M16
G05
G00X70.5Y-67.32
M15
G01X69.9Y-67.32
M16
G05
G00X74.93Y-58.68
M15
G01X73.83Y-58.68
M16
G05
G00X74.93Y-67.32
M15
G01X73.83Y-67.32
M16
G05
M30
