%TF.GenerationSoftware,KiCad,Pcbnew,9.0.1*%
%TF.CreationDate,2026-02-25T19:20:31+04:00*%
%TF.ProjectId,ZAP-010A,5a41502d-3031-4304-912e-6b696361645f,rev?*%
%TF.SameCoordinates,Original*%
%TF.FileFunction,Soldermask,Bot*%
%TF.FilePolarity,Negative*%
%FSLAX46Y46*%
G04 Gerber Fmt 4.6, Leading zero omitted, Abs format (unit mm)*
G04 Created by KiCad (PCBNEW 9.0.1) date 2026-02-25 19:20:31*
%MOMM*%
%LPD*%
G01*
G04 APERTURE LIST*
G04 Aperture macros list*
%AMRoundRect*
0 Rectangle with rounded corners*
0 $1 Rounding radius*
0 $2 $3 $4 $5 $6 $7 $8 $9 X,Y pos of 4 corners*
0 Add a 4 corners polygon primitive as box body*
4,1,4,$2,$3,$4,$5,$6,$7,$8,$9,$2,$3,0*
0 Add four circle primitives for the rounded corners*
1,1,$1+$1,$2,$3*
1,1,$1+$1,$4,$5*
1,1,$1+$1,$6,$7*
1,1,$1+$1,$8,$9*
0 Add four rect primitives between the rounded corners*
20,1,$1+$1,$2,$3,$4,$5,0*
20,1,$1+$1,$4,$5,$6,$7,0*
20,1,$1+$1,$6,$7,$8,$9,0*
20,1,$1+$1,$8,$9,$2,$3,0*%
G04 Aperture macros list end*
%ADD10C,2.000000*%
%ADD11R,1.800000X1.800000*%
%ADD12C,1.800000*%
%ADD13C,1.300000*%
%ADD14C,1.000000*%
%ADD15C,0.650000*%
%ADD16O,2.100000X1.000000*%
%ADD17O,1.600000X1.000000*%
%ADD18C,1.600000*%
%ADD19O,1.600000X1.600000*%
%ADD20R,1.700000X2.000000*%
%ADD21O,1.700000X2.000000*%
%ADD22R,3.000000X3.000000*%
%ADD23C,3.000000*%
%ADD24C,2.500000*%
%ADD25RoundRect,0.250000X1.000000X-1.000000X1.000000X1.000000X-1.000000X1.000000X-1.000000X-1.000000X0*%
%ADD26R,1.700000X1.700000*%
%ADD27C,1.700000*%
%ADD28C,3.000000*%
G04 APERTURE END LIST*
D10*
%TO.C,SW3*%
X85337500Y-99650000D03*
X85337500Y-93150000D03*
X89837500Y-99650000D03*
X89837500Y-93150000D03*
%TD*%
D11*
%TO.C,D6*%
X69830000Y-88437500D03*
D12*
X72370000Y-88437500D03*
%TD*%
D13*
%TO.C,BT1*%
X97450000Y-80750000D03*
D14*
X104950000Y-80750000D03*
%TD*%
D10*
%TO.C,SW6*%
X112300000Y-99650000D03*
X112300000Y-93150000D03*
X116800000Y-99650000D03*
X116800000Y-93150000D03*
%TD*%
%TO.C,SW1*%
X76350000Y-99650000D03*
X76350000Y-93150000D03*
X80850000Y-99650000D03*
X80850000Y-93150000D03*
%TD*%
D15*
%TO.C,J2*%
X73880000Y-60110000D03*
X73880000Y-65890000D03*
D16*
X74380000Y-58680000D03*
D17*
X70200000Y-58680000D03*
D16*
X74380000Y-67320000D03*
D17*
X70200000Y-67320000D03*
%TD*%
D18*
%TO.C,R1*%
X150000000Y-67510000D03*
D19*
X150000000Y-59890000D03*
%TD*%
D10*
%TO.C,SW5*%
X103312500Y-99650000D03*
X103312500Y-93150000D03*
X107812500Y-99650000D03*
X107812500Y-93150000D03*
%TD*%
D20*
%TO.C,PS1*%
X167762500Y-86462500D03*
D21*
X167762500Y-80462500D03*
X134162500Y-92462500D03*
X134162500Y-74462500D03*
%TD*%
D10*
%TO.C,C1*%
X155150000Y-66750000D03*
X155150000Y-56750000D03*
%TD*%
D22*
%TO.C,J1*%
X163600000Y-49000000D03*
D23*
X158520000Y-49000000D03*
X153440000Y-49000000D03*
X148360000Y-49000000D03*
%TD*%
D24*
%TO.C,K1*%
X136800000Y-63182500D03*
X130800000Y-48982500D03*
X142800000Y-48982500D03*
D25*
X130800000Y-61182500D03*
D24*
X142800000Y-61182500D03*
%TD*%
D11*
%TO.C,D5*%
X69830000Y-96450000D03*
D12*
X72370000Y-96450000D03*
%TD*%
D26*
%TO.C,J3*%
X83740000Y-53900000D03*
D27*
X81200000Y-53900000D03*
X78660000Y-53900000D03*
X76120000Y-53900000D03*
%TD*%
D11*
%TO.C,D1*%
X69830000Y-80425000D03*
D12*
X72370000Y-80425000D03*
%TD*%
D10*
%TO.C,SW4*%
X94325000Y-99650000D03*
X94325000Y-93150000D03*
X98825000Y-99650000D03*
X98825000Y-93150000D03*
%TD*%
%TO.C,F1*%
X169300000Y-51410000D03*
X169290000Y-56490000D03*
%TD*%
D12*
%TO.C,RV1*%
X160700000Y-66000000D03*
X163400000Y-58500000D03*
%TD*%
D28*
X136800000Y-63182500D02*
X136800000Y-57250000D01*
X136800000Y-57250000D02*
X139050000Y-55000000D01*
X153440000Y-51510000D02*
X153440000Y-49000000D01*
X149950000Y-55000000D02*
X153440000Y-51510000D01*
X139050000Y-55000000D02*
X149950000Y-55000000D01*
X148360000Y-49000000D02*
X142817500Y-49000000D01*
M02*
